# xmcd
#
# Track frame offsets:
#	150
#	12274
#	29294
#	39730
#	50513
#	67342
#	75804
#	87626
#	105974
#	115194
#	129558
#	136756
#	145014
#	154565
#	167180
#	179997
#	191927
#	211532
#	224192
#	234327
#	249380
#	259105
#
# Disc length: 3637 seconds
#
# Revision: 0
# Processed by: cddbd v1.5.2PL0 Copyright (c) Steve Scherf et al.
# Submitted via: dBpowerAMP V4.0
#
DISCID=3a0e3316
DTITLE=The Light Crust Doughboys - Silver Age Collection - Around the World - Tunes We Played in Europe
DYEAR=1996
DGENRE=Country
TTITLE0=Cattle Call
TTITLE1=Just Because
TTITLE2=Kelly Waltz
TTITLE3=Sugar Moon
TTITLE4=Careless Hands
TTITLE5=Take Me Back to Tulsa
TTITLE6=12th Street Rag
TTITLE7=Milk Cow Blues
TTITLE8=Miss Molly
TTITLE9=You Don't Love Me, but I'll Always Care
TTITLE10=Old Joe Clark
TTITLE11=Yellow Rose of Texas
TTITLE12=Red Wing - Stumbling - Isle of Capri
TTITLE13=Red Roses for a Blue Lady
TTITLE14=Jailhouse Rock
TTITLE15=Bye bye Blues
TTITLE16=Welcome to My World
TTITLE17=Skyball Paint
TTITLE18=Listen to the Mockingbird
TTITLE19=It's No Secret
TTITLE20=Big Ball in Cowtown
TTITLE21=Lone Star Rag
EXTD=
EXTT0=
EXTT1=
EXTT2=
EXTT3=
EXTT4=
EXTT5=
EXTT6=
EXTT7=
EXTT8=
EXTT9=
EXTT10=
EXTT11=
EXTT12=
EXTT13=
EXTT14=
EXTT15=
EXTT16=
EXTT17=
EXTT18=
EXTT19=
EXTT20=
EXTT21=
PLAYORDER=
